<svg width="288" height="280" viewBox="0 0 288 280" fill="none" xmlns="http://www.w3.org/2000/svg">
    <path d="M257.075 23.7158C255.974 24.5573 254.636 26.3934 254.085 27.7704L253.141 30.295L249.914 28.765C244.957 26.3169 235.908 26.1639 230.714 28.3059C226.229 30.2185 224.892 32.4371 223.869 39.6283C223.475 42.5354 222.61 44.448 221.036 46.2841C218.36 49.2677 218.203 50.4917 220.328 52.4043C221.351 53.3223 221.901 54.7759 221.901 56.6884C221.901 59.2896 222.295 59.9016 224.97 61.5081C226.701 62.5792 228.275 64.1857 228.59 65.0273C229.298 67.1693 228.433 70.3824 226.623 72.6775L225.128 74.5901L222.216 73.06C220.013 71.9125 218.36 69.9234 215.685 65.3333C211.2 57.683 210.57 56.8414 206.872 55.0054C203.331 53.2458 198.531 53.0928 194.754 54.6229C190.347 56.4589 189.088 60.8196 192 64.4917L193.574 66.4808L192 69.0054C191.134 70.459 190.426 72.907 190.426 74.6666C190.426 76.8087 189.954 78.2622 188.852 79.1803C186.964 80.8633 186.885 82.0874 188.459 83.3879C189.088 83.9234 189.796 85.53 190.111 87.1365C190.898 91.1912 191.449 91.9562 195.147 93.2568C196.957 93.9453 199.003 95.3988 199.711 96.5464C200.813 98.3824 200.813 98.8415 199.633 101.519C198.924 103.126 197.98 105.421 197.508 106.568L196.721 108.71L194.046 106.109C192.314 104.426 189.954 103.126 187.514 102.514C184.367 101.672 183.265 100.984 181.377 98.1529C180.039 96.3169 177.364 93.5628 175.396 92.1857L171.777 89.5846L172.406 85.9125C173.193 81.3988 173.193 59.2896 172.406 56.612C172.013 55.1584 171.305 54.6229 169.337 54.4699C167.213 54.2404 166.662 54.5464 166.033 56.2294C165.56 57.3005 165.246 60.2076 165.246 62.5792C165.246 69.5409 164.223 70.3824 156.118 70.3824C147.383 70.3824 144.393 71.53 143.292 75.5081C141.954 80.1748 142.269 86.142 144 89.5081C144.865 91.1912 145.888 92.5682 146.282 92.5682C147.462 92.5682 149.508 97.0054 148.485 97.3879C148.013 97.5409 147.855 98.1529 148.092 98.765C148.406 99.4535 151.082 100.372 155.724 101.213C164.695 102.896 166.505 103.661 167.685 106.415C168.393 108.251 168.393 108.94 167.292 110.546C166.583 111.541 165.482 114.754 164.773 117.585C164.144 120.415 163.121 123.781 162.492 125.158C161.469 127.53 161.547 127.76 164.144 130.361C165.639 131.814 166.819 133.497 166.819 134.109C166.819 134.721 167.528 135.792 168.314 136.481C169.574 137.552 170.675 137.705 174.059 137.322C177.442 136.94 178.701 137.169 180.826 138.393C183.737 140.229 183.816 140.688 181.849 146.809C178.937 155.989 172.878 163.104 167.055 164.175C163.2 164.863 147.855 163.104 146.439 161.803C145.495 160.885 145.652 160.35 147.541 158.208C152.734 152.24 154.229 143.06 151.16 136.481C149.508 132.885 144.629 128.601 140.774 127.377L138.098 126.459L137.941 94.9398C137.862 72.6775 137.547 63.1147 136.918 62.3497C135.029 60.1311 125.823 59.1365 83.803 56.612C69.9538 55.7704 50.2817 54.5464 40.1309 53.9344C29.9801 53.3223 19.6719 52.7103 17.3112 52.6338L12.9834 52.4043L12.7473 70.3824C12.5112 88.1311 13.6915 180.317 14.7145 219.333C15.1079 237.77 15.2653 239.453 16.603 239.836C18.4915 240.448 35.4096 238.688 76.3276 233.639C95.1342 231.344 113.39 229.126 116.774 228.743C125.272 227.749 135.659 226.372 135.895 226.142C135.974 226.066 136.288 214.437 136.603 200.361C136.839 186.361 137.154 174.426 137.311 173.891C137.783 172.361 141.954 174.197 143.921 176.721C146.124 179.628 150.137 181.617 157.141 183.147C166.662 185.213 174.846 184.372 182.793 180.47C187.908 177.869 196.013 169.453 199.79 162.721C201.678 159.508 203.567 156.831 204.118 156.831C204.669 156.831 207.108 158.59 209.547 160.732C212.931 163.639 214.033 165.093 214.033 166.623C214.033 167.77 211.829 172.131 209.233 176.339C199.396 192.098 183.344 227.06 181.613 236.393C180.59 241.672 180.511 241.749 175.869 245.191C173.272 247.027 167.842 250.393 163.751 252.612C154.623 257.508 151.869 259.727 151.869 262.098C151.869 264.623 154.151 265.005 164.301 264.317C173.587 263.781 177.206 262.634 178.701 259.956L179.724 258.197L180.196 260.109C180.669 261.945 180.983 262.022 186.098 262.022H191.528L192.865 254.448C194.203 247.257 194.439 246.721 197.744 243.355C204.275 236.776 216.865 218.415 227.803 199.672C229.849 196.076 232.76 191.716 234.177 189.88C236.459 186.973 236.852 186.743 237.482 187.967C239.842 192.404 240.236 197.836 239.528 215.738C239.134 225.606 238.898 237.082 239.055 241.137L239.213 248.634L236.065 250.852C234.413 252 230.714 253.759 228.039 254.678C219.462 257.661 218.046 258.426 217.495 260.492C216.393 264.929 221.036 266.076 235.042 264.776C243.462 264.011 244.485 263.705 245.901 262.022C247.869 259.727 249.442 259.574 249.442 261.563C249.442 263.246 252.196 264.164 255.58 263.475L257.941 263.016L258.334 254.448C258.57 249.552 259.436 243.049 260.459 239.071C261.954 233.104 262.19 229.279 262.583 210.382C262.819 198.372 262.583 180.852 262.19 171.366C261.56 159.279 261.56 151.858 262.111 146.503C262.583 142.295 263.055 127.836 263.055 114.372C263.213 90.6557 263.134 89.7376 261.403 84.1529C259.121 77.2677 256.446 73.4426 251.96 70.6885C248.105 68.3169 245.508 65.4098 245.508 63.5737C245.508 62.8852 247.239 61.4316 249.442 60.2841C253.534 58.0655 257.469 53.5518 258.885 49.4207C259.593 47.3551 260.301 46.8196 263.449 45.9781C270.059 44.3715 275.41 38.6338 275.41 33.2786C275.41 25.1693 263.37 18.8961 257.075 23.7158ZM232.682 42.6885C235.593 46.2076 240.314 48.9617 243.383 48.9617C244.485 48.9617 246.137 49.6502 247.16 50.4152C248.734 51.6393 248.892 52.1748 248.183 53.3223C247.711 54.0874 246.373 55.1584 245.272 55.6939C243.462 56.5355 243.147 57.1475 243.147 59.9781V63.3442L237.403 63.8797C231.816 64.3387 231.501 64.2622 227.96 61.9672C224.734 59.9016 224.262 59.213 224.262 56.918C224.262 55.0054 223.633 53.7048 222.137 52.3278L220.092 50.4917L222.61 47.9671C224.577 45.9016 225.206 44.601 225.521 41.2349C225.757 38.9398 226.151 36.2622 226.387 35.1912C226.78 33.3551 226.859 33.4316 228.354 36.3387C229.219 38.0218 231.187 40.8524 232.682 42.6885ZM82.2292 59.7486C111.265 61.8907 135.108 63.8797 135.344 64.1092C135.58 64.4152 135.58 78.4152 135.344 95.2458L134.951 125.847L132.983 126L131.016 126.076V108.251C131.016 98.4589 130.859 90.2732 130.623 90.0437C130.072 89.5081 105.364 87.4426 88.5243 86.448C40.0522 83.6939 28.1702 83.2349 27.3047 84.0764C26.5965 84.765 26.3604 100.907 26.3604 147.191V209.464L31.3178 209.847C41.2325 210.765 104.655 207.016 123.069 204.415C128.026 203.727 127.947 203.803 128.734 185.519C129.285 170.984 129.364 170.831 132.511 172.055C134.006 172.59 134.006 173.585 133.849 197.453C133.77 211.071 133.534 222.317 133.455 222.393C133.298 222.623 120.865 224.153 86.1637 228.437C69.6391 230.426 48.0784 233.333 33.9932 235.399C26.5178 236.47 20.2227 237.158 20.0653 237.005C19.8293 236.852 19.3571 218.109 18.885 195.388C17.0752 99.3005 16.5243 68.0874 16.5243 61.6611V54.8524L23.0555 55.3879C26.5965 55.6174 53.1932 57.6065 82.2292 59.7486ZM244.721 66.4808C244.721 66.8633 247.003 68.9289 249.757 71.071C253.928 74.2076 255.108 75.6611 256.446 79.0273C258.964 85.7595 259.751 94.6338 259.514 114.754L259.278 133.497L257.154 127.53C253.849 118.197 249.836 112 243.069 105.497C235.278 98.0764 227.724 94.0983 220.642 93.4863C215.606 93.1038 213.56 91.8032 217.967 91.8032C219.541 91.8032 221.272 90.9617 223.239 89.2021C225.836 86.907 226.151 86.2185 226.465 81.7814C226.701 78.0327 227.252 76.2731 228.826 74.2841C229.928 72.8305 230.951 70.459 231.029 68.9289C231.187 67.3988 231.265 66.0983 231.265 65.9453C231.423 65.4098 244.721 65.8688 244.721 66.4808ZM197.193 69.4644C198.059 70.1529 200.105 72.3715 201.757 74.3606C205.455 78.8743 208.131 80.5573 211.436 80.4808C213.718 80.4043 214.033 80.6338 214.033 82.3934C214.033 83.5409 213.246 85.224 212.301 86.2185L210.57 87.9781L212.301 91.4207L213.954 94.7868L211.829 96.3169C210.649 97.0819 208.367 97.9999 206.714 98.3059C204.039 98.8415 203.724 98.6884 202.229 96.1639C200.97 94.0983 199.79 93.3333 197.193 92.6447C193.81 91.8032 192 89.7376 192 86.448C192 85.6065 191.213 84.306 190.269 83.3879L188.537 81.8578L190.269 80.0983C191.213 79.1038 192 77.3442 192 76.0437C192 72.754 193.495 68.0874 194.596 68.0874C195.147 68.0874 196.249 68.6994 197.193 69.4644ZM69.2456 87.5956C78.5309 88.2076 93.403 89.0491 102.295 89.5081C111.187 89.9671 120.551 90.5027 123.226 90.7322L128.026 91.1147L127.711 97.0054C127.633 100.219 127.239 108.328 127.003 114.907L126.531 126.841L124.249 127.76C120.314 129.366 115.829 134.874 114.413 139.847C113.154 144.284 113.075 144.361 107.882 146.809C105.049 148.186 94.8194 154 85.1407 159.661L67.6719 169.989L62.0063 166.699C51.6981 160.503 50.0456 159.814 47.9997 160.273C46.9768 160.579 42.5702 163.027 38.2424 165.705C33.9932 168.459 30.2161 170.448 29.9014 170.066C29.5866 169.759 29.1145 150.557 28.7997 127.453L28.3276 85.53L40.367 85.989C46.8981 86.295 59.9604 86.9836 69.2456 87.5956ZM175.003 94.0218C176.341 95.4753 176.341 95.6283 175.16 95.6283C172.878 95.6283 167.764 98.612 167.213 100.295C166.819 101.519 166.269 101.749 165.01 101.443C164.065 101.137 160.996 100.448 158.321 99.836C151.633 98.459 151.082 97.6174 157.219 98.1529C162.255 98.6885 163.436 97.9999 160.367 96.5464C158.714 95.7814 158.793 95.7048 161.547 95.7048C165.167 95.6283 169.81 93.7923 170.439 92.2622C170.99 90.8852 172.721 91.5737 175.003 94.0218ZM223.633 96.3169C229.849 98.3824 232.21 99.683 237.639 104.12C243.541 108.863 248.813 115.596 252.275 122.863C255.108 128.754 258.098 138.393 258.098 141.683C258.098 144.055 255.895 145.814 251.96 146.579C249.442 147.038 249.442 147.038 250.308 144.743C251.252 142.142 249.678 138.47 245.901 134.262C244.17 132.273 244.249 132.732 246.767 137.169C248.341 140 249.442 142.525 249.206 142.754C249.049 142.907 248.419 142.066 247.869 140.841C246.767 138.24 244.721 136.175 244.721 137.628C244.721 138.164 244.406 138.317 243.934 138.087C242.675 137.322 243.069 138.929 244.8 141.913C245.744 143.443 246.295 144.82 246.137 145.049C245.901 145.202 244.564 143.443 243.069 140.994C238.898 134.186 236.38 133.497 236.695 139.235C236.852 140.994 236.537 142.295 236.065 142.295C235.593 142.295 235.278 140.229 235.278 137.322V132.35L237.246 133.115C244.8 135.945 249.206 123.781 244.092 113.989C240.472 107.027 234.649 104.35 224.262 104.962C217.574 105.421 211.514 107.792 206.321 112.153C202.78 115.06 202.072 115.213 200.341 113.606C199.003 112.229 199.396 108.175 201.364 104.044C202.544 101.519 202.859 101.366 207.187 100.984C211.278 100.601 212.065 100.219 214.269 97.7704C217.259 94.4808 217.888 94.4043 223.633 96.3169ZM178.544 98.612C180.59 101.366 180.669 102.514 178.78 102.514C178.072 102.514 175.79 103.355 173.744 104.426C171.698 105.497 169.888 106.339 169.731 106.339C168.865 106.339 168.472 101.443 169.18 100.142C170.124 98.5354 173.665 96.4699 175.633 96.3934C176.341 96.3934 177.678 97.3879 178.544 98.612ZM187.751 106.033C189.246 106.721 190.977 108.022 191.685 108.94C192.314 109.781 194.439 112.153 196.406 114.142L199.947 117.661L197.508 121.945C194.911 126.382 194.046 126.918 191.764 125.235C190.583 124.47 190.505 123.934 191.37 121.869C192.708 118.426 191.134 116.743 187.357 117.432C179.567 118.732 179.016 118.732 175.475 116.82C173.508 115.825 171.383 114.142 170.754 112.994C169.731 111.235 169.731 110.852 171.147 109.322C175.318 104.809 182.164 103.508 187.751 106.033ZM176.026 120.033C178.544 121.257 182.636 121.027 184.288 119.574C185.469 118.579 186.098 118.426 187.121 119.038C188.773 120.109 189.246 122.863 188.065 124.317C187.357 125.158 187.829 125.77 190.347 127.377C192.157 128.448 193.574 129.749 193.574 130.284C193.574 131.891 190.583 136.022 188.459 137.399C186.492 138.623 186.255 138.623 182.557 136.94C178.859 135.257 176.655 135.18 172.957 136.557C171.934 136.94 171.226 136.328 170.046 134.033C169.18 132.35 167.449 130.284 166.269 129.443C164.144 127.913 164.144 127.913 165.403 125.311C166.111 123.858 166.898 120.721 167.213 118.35L167.764 113.989L171.069 116.59C172.8 117.967 175.082 119.497 176.026 120.033ZM230.478 120.033C232.76 122.251 234.885 130.82 233.075 130.82C232.76 130.82 231.737 130.284 230.793 129.672C229.849 128.984 226.308 127.76 223.003 126.994C219.619 126.153 216.787 125.388 216.629 125.235C216.236 124.776 220.642 121.027 223.082 119.803C226.229 118.197 228.669 118.273 230.478 120.033ZM139.2 128.525C148.485 131.126 153.757 140.612 151.082 150.022C148.485 159.126 135.187 164.94 125.823 161.115C118.662 158.208 114.964 152.699 114.885 145.049C114.885 133.115 126.767 125.005 139.2 128.525ZM254.085 157.825C255.423 160.426 257.311 165.322 258.255 168.688C259.908 174.503 259.987 176.262 260.065 203.115C260.065 229.814 259.908 231.88 258.255 239.453C257.233 243.891 255.895 248.251 255.265 249.246C252.59 253.3 245.665 253.224 243.069 249.093C241.337 246.262 241.101 237.158 242.36 216.12C243.226 202.503 242.596 194.623 240.314 189.344C238.898 186.055 236.459 184.601 234.728 186.055C232.367 187.891 227.567 194.776 223.79 201.661C219.305 209.77 205.77 230.503 201.364 236.164C197.744 240.678 190.898 247.104 189.639 247.104C189.167 247.104 187.751 246.568 186.492 245.956C183.58 244.503 182.793 240.831 184.131 234.94C186.177 226.066 200.734 194.852 213.718 171.672L215.921 167.694L221.901 167.388C231.737 166.852 242.282 160.962 247.16 153.235C248.734 150.787 248.97 150.71 250.229 151.858C250.937 152.546 252.669 155.224 254.085 157.825ZM143.921 165.781C142.662 167.235 141.639 169.071 141.639 169.836C141.639 170.678 141.324 171.366 141.01 171.366C139.2 171.366 125.665 168.229 124.249 167.541C121.495 166.011 123.226 165.781 127.16 167.082C131.567 168.535 133.219 168.612 132.826 167.388C132.669 166.929 130.229 165.858 127.396 165.093C120.944 163.333 120.078 163.027 120.629 162.492C120.865 162.262 123.619 162.798 126.767 163.716C131.174 165.016 132.826 165.246 133.928 164.557C134.714 164.098 136.131 163.716 137.075 163.716C138.098 163.639 139.987 163.18 141.246 162.645C142.898 161.956 144 161.88 144.944 162.492C146.124 163.18 146.046 163.486 143.921 165.781Z" fill="url(#paint0_linear_225_7890)"/>
    <path d="M25.5737 64.6447C24.472 65.6392 23.6064 67.0928 23.6064 67.7813C23.6064 72.295 32.6556 78.7212 37.4556 77.5736C43.0425 76.2731 44.0655 72.2185 39.9737 67.6283C35.4097 62.5791 29.036 61.2786 25.5737 64.6447ZM36.9835 66.5573C37.8491 67.3988 38.5573 69.0818 38.5573 70.3824C38.5573 75.1256 32.813 77.4206 29.272 74.2075C25.6523 70.9179 28.0917 65.0272 33.0491 65.0272C34.3868 65.0272 36.1179 65.7157 36.9835 66.5573Z" fill="#FDEDCA"/>
    <path d="M48.2354 72.2186C48.7863 73.8251 56.3404 74.9727 73.9666 76.1202C83.724 76.7322 97.0223 77.5738 103.632 78.1093C117.56 79.0273 118.583 78.9508 117.088 77.1147C115.435 74.9727 110.085 74.4371 79.8682 73.1366C64.2879 72.4481 50.7535 71.7595 49.7305 71.6065C48.6289 71.4535 48.0781 71.683 48.2354 72.2186Z" fill="#FDEDCA"/>
    <path d="M117.088 208.623C115.435 209.005 115.121 214.208 116.458 217.65L117.245 219.716L119.685 217.727C121.967 215.814 122.203 215.814 124.406 216.962L126.767 218.109L126.531 213.29L126.294 208.47L122.36 208.317C120.235 208.317 117.796 208.393 117.088 208.623ZM125.744 212.831L125.98 215.738L123.619 214.437C121.416 213.137 121.18 213.137 119.763 214.437C117.639 216.273 117.245 216.044 117.245 213.213C117.245 209.847 117.717 209.541 121.967 209.77C125.429 210 125.508 210.076 125.744 212.831Z" fill="#FDEDCA"/>
    <path d="M53.0355 213.366C51.2256 214.131 49.5732 215.432 49.2584 216.12C48.5502 217.956 49.5732 226.371 50.5175 226.907C50.9109 227.213 52.7994 226.295 54.6879 224.994C57.6781 222.929 58.465 222.699 61.6912 223.082C68.3797 224 71.4486 219.792 67.2781 215.432C63.6584 211.683 58.6224 210.918 53.0355 213.366ZM65.3109 214.973C69.0093 218.568 66.4125 221.858 59.9601 221.858C57.1273 221.858 54.7666 222.317 53.665 223.082C52.0125 224.153 51.8552 224.153 51.147 222.164C49.9666 219.257 51.5404 215.814 54.6093 214.513C58.3863 212.983 63.4224 213.136 65.3109 214.973Z" fill="#FDEDCA"/>
    <path d="M38.9505 215.432C36.8259 217.344 36.5898 217.421 34.5439 216.197C30.2948 213.748 28.4062 214.973 30.1374 218.951C31.7899 222.776 36.1964 226.524 38.5571 226.295C41.1538 225.989 44.2226 220.328 43.9079 216.503C43.5931 213.136 41.9407 212.754 38.9505 215.432ZM42.4915 216.273C42.4128 217.497 38.1636 224.459 37.298 224.688C36.4325 224.994 31.4751 218.492 31.4751 217.115C31.4751 216.12 34.0718 216.426 35.7243 217.65C37.062 218.645 37.4554 218.568 39.1866 217.268C41.2325 215.661 42.4915 215.355 42.4915 216.273Z" fill="#FB4169"/>
    <path d="M54.6095 105.497C46.5833 109.093 44.4587 118.044 50.1242 125.311C53.8226 130.055 61.8488 132.579 68.2226 130.896C81.1275 127.53 82.5439 111.77 70.5046 105.956C65.7046 103.585 59.3308 103.432 54.6095 105.497Z" fill="#FDEDCA"/>
    <path d="M123.541 136.863C122.361 139.158 122.597 142.295 124.407 146.12C126.138 149.869 131.095 155.301 132.826 155.301C134.4 155.301 138.885 150.175 141.246 145.585C144.551 139.311 142.82 133.956 138.256 136.328C137.312 136.787 135.895 138.011 135.108 139.005L133.613 140.842L130.859 138.087C127.869 135.104 124.879 134.568 123.541 136.863Z" fill="#FB4169"/>
    <defs>
        <linearGradient id="paint0_linear_225_7890" x1="144.063" y1="265.279" x2="154.122" y2="-105.028" gradientUnits="userSpaceOnUse">
            <stop stop-color="#FFE8B4"/>
            <stop offset="1" stop-color="#FFC3AE"/>
        </linearGradient>
    </defs>
</svg>
